<svg width="171" height="50" viewBox="0 0 171 50" fill="none" xmlns="http://www.w3.org/2000/svg">
<g id="appGallery" clip-path="url(#clip0_229_1122)">
<path id="Vector" d="M165.971 0.625H5.0294C2.59894 0.625 0.628662 2.58375 0.628662 5V45C0.628662 47.4162 2.59894 49.375 5.0294 49.375H165.971C168.401 49.375 170.371 47.4162 170.371 45V5C170.371 2.58375 168.401 0.625 165.971 0.625Z" fill="black" stroke="#22252C"/>
<path id="Vector_2" d="M62.1579 33.7776H56.344L54.9251 37.6373H52.3631L58.0587 23.1976H60.4827L66.3162 37.6373H63.6359L62.1579 33.7776ZM57.0733 31.8184H61.409L59.852 27.6843C59.6353 27.1161 59.4185 26.4891 59.2215 25.7839C59.0243 26.3913 58.8273 27.0181 58.6105 27.6648L57.0733 31.8184Z" fill="white"/>
<path id="Vector_3" d="M67.459 29.526C67.459 28.7227 67.4393 27.8606 67.3802 26.9006H69.7057C69.7845 27.3512 69.8436 27.8018 69.8831 28.2721C70.8487 27.2337 71.9523 26.7047 73.1939 26.7047C73.9231 26.7047 74.5931 26.881 75.2041 27.2532C75.815 27.606 76.3078 28.1937 76.7019 28.9773C77.0764 29.7611 77.2734 30.7603 77.2734 31.9555C77.2734 33.2093 77.0566 34.287 76.6231 35.1686C76.1894 36.0503 75.5982 36.736 74.81 37.1866C74.0414 37.6373 73.1348 37.8723 72.1297 37.8723C71.4006 37.8723 70.6713 37.7548 69.9619 37.5001V41.9281L67.4786 42.1436V29.526H67.459ZM73.9626 35.0315C74.4749 34.3653 74.7114 33.3661 74.7114 32.073C74.7114 30.8778 74.4947 29.9962 74.0807 29.4476C73.6669 28.8991 73.1151 28.6443 72.4056 28.6443C71.9327 28.6443 71.4794 28.7618 71.0655 28.9773C70.6517 29.2125 70.2771 29.5063 69.9027 29.8787V35.6388C70.1589 35.7563 70.4348 35.8543 70.7699 35.9327C71.105 36.0111 71.4202 36.0307 71.7355 36.0307C72.7209 36.0307 73.4698 35.6976 73.9626 35.0315Z" fill="white"/>
<path id="Vector_4" d="M78.8304 29.526C78.8304 28.7227 78.8106 27.8606 78.7515 26.9006H81.077C81.1558 27.3512 81.2151 27.8018 81.2544 28.2721C82.2201 27.2337 83.3238 26.7047 84.5653 26.7047C85.2945 26.7047 85.9646 26.881 86.5755 27.2532C87.1865 27.606 87.6791 28.1937 88.0733 28.9773C88.4477 29.7611 88.6448 30.7603 88.6448 31.9555C88.6448 33.2093 88.428 34.287 87.9945 35.1686C87.5609 36.0503 86.9697 36.736 86.1813 37.1866C85.4127 37.6373 84.5062 37.8723 83.5011 37.8723C82.7719 37.8723 82.0428 37.7548 81.3332 37.5001V41.9281L78.8501 42.1436V29.526H78.8304ZM85.3536 35.0315C85.866 34.3653 86.1025 33.3661 86.1025 32.073C86.1025 30.8778 85.8857 29.9962 85.4718 29.4476C85.058 28.8991 84.5062 28.6443 83.7968 28.6443C83.3238 28.6443 82.8705 28.7618 82.4566 28.9773C82.0428 29.2125 81.6683 29.5063 81.2939 29.8787V35.6388C81.55 35.7563 81.826 35.8543 82.161 35.9327C82.496 36.0111 82.8113 36.0307 83.1266 36.0307C84.112 36.0307 84.8413 35.6976 85.3536 35.0315Z" fill="white"/>
<path id="Vector_5" d="M93.2958 36.9711C92.2316 36.3832 91.4039 35.5409 90.8323 34.4436C90.2608 33.3465 89.9652 32.0534 89.9652 30.5644C89.9652 28.9381 90.3002 27.5667 90.9506 26.4304C91.6206 25.294 92.5075 24.4515 93.6505 23.8832C94.7936 23.3151 96.0746 23.0212 97.4935 23.0212C98.3212 23.0212 99.1293 23.1192 99.8782 23.2955C100.647 23.4719 101.337 23.7266 102.007 24.04L101.376 25.9405C100.056 25.3135 98.7942 25.0001 97.6118 25.0001C96.6067 25.0001 95.7199 25.2156 94.9512 25.6466C94.1826 26.0776 93.6112 26.7046 93.1775 27.5275C92.7637 28.3504 92.5469 29.3692 92.5469 30.5447C92.5469 31.5831 92.7046 32.4844 93.0396 33.2877C93.3746 34.091 93.8673 34.718 94.5768 35.1881C95.2666 35.6584 96.1534 35.8935 97.2176 35.8935C97.6906 35.8935 98.1833 35.8544 98.6563 35.776C99.1293 35.6976 99.5826 35.58 100.016 35.4232V32.504H96.6658V30.5644H102.44V36.638C101.612 37.0299 100.745 37.3237 99.8191 37.5196C98.9125 37.7352 98.006 37.8331 97.0994 37.8331C95.641 37.8527 94.3797 37.5589 93.2958 36.9711Z" fill="white"/>
<path id="Vector_6" d="M111.348 37.6568C111.269 37.2453 111.21 36.7555 111.171 36.2265C110.796 36.6772 110.284 37.069 109.673 37.3824C109.062 37.6959 108.372 37.8527 107.604 37.8527C106.973 37.8527 106.421 37.7352 105.909 37.4804C105.397 37.2453 104.983 36.873 104.687 36.3833C104.392 35.8934 104.234 35.3057 104.234 34.6003C104.234 33.5619 104.608 32.7194 105.377 32.112C106.126 31.4852 107.387 31.1717 109.161 31.1717C109.831 31.1717 110.481 31.2108 111.132 31.3088V31.0933C111.132 30.1333 110.935 29.4672 110.521 29.0753C110.107 28.6834 109.535 28.4875 108.767 28.4875C108.234 28.4875 107.683 28.5659 107.072 28.7225C106.461 28.8793 105.948 29.0557 105.495 29.2712L105.101 27.4687C105.535 27.2728 106.126 27.0768 106.855 26.92C107.584 26.7633 108.333 26.6654 109.141 26.6654C110.067 26.6654 110.875 26.8025 111.526 27.0964C112.176 27.3707 112.689 27.8605 113.063 28.5463C113.437 29.232 113.615 30.1528 113.615 31.3284V35.5995C113.615 36.0502 113.634 36.7163 113.694 37.6175H111.348V37.6568ZM109.87 35.6583C110.383 35.4037 110.816 35.1098 111.132 34.7375V32.739C110.461 32.6607 109.91 32.6215 109.476 32.6215C108.451 32.6215 107.742 32.7783 107.348 33.1113C106.953 33.4444 106.756 33.8754 106.756 34.4435C106.756 34.9725 106.894 35.3644 107.19 35.6192C107.466 35.8738 107.86 36.011 108.353 36.011C108.845 36.0305 109.358 35.8934 109.87 35.6583Z" fill="white"/>
<path id="Vector_7" d="M115.763 35.0706V22.3551L118.227 22.1592V34.6396C118.227 35.0902 118.305 35.4233 118.463 35.6192C118.621 35.8152 118.877 35.9131 119.212 35.9131C119.37 35.9131 119.586 35.8739 119.862 35.7956L120.158 37.5588C119.921 37.6568 119.645 37.7352 119.291 37.7744C118.956 37.8332 118.64 37.8528 118.325 37.8528C116.63 37.8528 115.763 36.9319 115.763 35.0706Z" fill="white"/>
<path id="Vector_8" d="M121.931 35.0706V22.3551L124.395 22.1592V34.6396C124.395 35.0902 124.474 35.4233 124.631 35.6192C124.789 35.8152 125.045 35.9131 125.38 35.9131C125.538 35.9131 125.754 35.8739 126.031 35.7956L126.326 37.5588C126.09 37.6568 125.813 37.7352 125.459 37.7744C125.124 37.8332 124.809 37.8528 124.493 37.8528C122.798 37.8528 121.931 36.9319 121.931 35.0706Z" fill="white"/>
<path id="Vector_9" d="M136.594 32.5826H129.519C129.637 34.8357 130.721 35.9524 132.751 35.9524C133.263 35.9524 133.776 35.8937 134.308 35.7762C134.84 35.6586 135.353 35.4823 135.844 35.2863L136.378 36.9713C135.176 37.5591 133.815 37.8529 132.297 37.8529C131.154 37.8529 130.169 37.6374 129.38 37.2064C128.592 36.7753 128.001 36.1484 127.607 35.3451C127.213 34.5418 127.017 33.5622 127.017 32.4062C127.017 31.2111 127.233 30.1923 127.646 29.3302C128.06 28.4682 128.651 27.8216 129.4 27.3709C130.15 26.9203 131.016 26.6852 132.002 26.6852C133.027 26.6852 133.874 26.9203 134.564 27.3906C135.253 27.8608 135.766 28.5073 136.082 29.2911C136.417 30.0747 136.574 30.9564 136.574 31.9164V32.5826H136.594ZM134.17 31.0152C134.131 30.1531 133.913 29.5066 133.52 29.0951C133.125 28.6641 132.613 28.4486 131.963 28.4486C131.332 28.4486 130.82 28.6641 130.386 29.0951C129.973 29.5262 129.696 30.1727 129.578 31.0152H134.17Z" fill="white"/>
<path id="Vector_10" d="M138.584 29.6043C138.584 29.0166 138.564 28.1153 138.505 26.9006H140.831C140.87 27.1945 140.909 27.5667 140.949 27.9782C140.988 28.3896 141.008 28.7227 141.029 28.997C141.324 28.5267 141.599 28.135 141.876 27.8018C142.151 27.4688 142.486 27.2141 142.842 27.0182C143.215 26.8222 143.629 26.7047 144.103 26.7047C144.476 26.7047 144.812 26.7438 145.087 26.8222L144.773 28.9578C144.535 28.8795 144.26 28.8402 143.964 28.8402C143.373 28.8402 142.881 28.997 142.447 29.2908C142.013 29.5847 141.54 30.0746 141.047 30.7603V37.6765H138.584V29.6043Z" fill="white"/>
<path id="Vector_11" d="M146.566 42.0456C146.211 41.9869 145.916 41.9085 145.679 41.8301L146.132 40.0276C146.291 40.0669 146.507 40.1256 146.763 40.1647C147.02 40.204 147.256 40.2236 147.493 40.2236C148.597 40.2236 149.404 39.5182 149.956 38.1271L150.113 37.7354L146.132 26.8811H148.793L150.803 32.9351C151.139 33.9736 151.335 34.7572 151.434 35.3255C151.631 34.5417 151.848 33.7776 152.105 32.994L154.134 26.8811H156.637L152.655 37.7745C152.282 38.8129 151.867 39.6357 151.434 40.2627C151.001 40.8897 150.488 41.36 149.897 41.6734C149.306 41.9869 148.597 42.124 147.749 42.124C147.315 42.1436 146.941 42.124 146.566 42.0456Z" fill="white"/>
<path id="Vector_12" fill-rule="evenodd" clip-rule="evenodd" d="M33.9762 9.09094H19.9838C13.4014 9.09094 10.9773 11.4812 10.9773 18.0447V31.9553C10.9773 38.4993 13.3816 40.9092 19.9838 40.9092H33.9762C40.5586 40.9092 42.9826 38.5188 42.9826 31.9553V18.0447C42.9629 11.4812 40.5586 9.09094 33.9762 9.09094Z" fill="#C8102E"/>
<path id="Vector_13" d="M17.323 25H18.1704V29.1536H17.323V27.4687H15.4114V29.1536H14.5639V25H15.4114V26.685H17.323V25ZM22.0923 27.3707C22.0923 28.0368 21.7572 28.4091 21.1463 28.4091C20.5353 28.4091 20.1806 28.0368 20.1806 27.3511V25H19.3332V27.3707C19.3332 28.5462 19.9836 29.2125 21.1265 29.2125C22.2696 29.2125 22.9398 28.5267 22.9398 27.3316V24.9805H22.0923V27.3707ZM31.9067 27.8605L30.9608 25H30.271L29.325 27.8605L28.3987 25H27.4921L28.9505 29.1536H29.6601L30.606 26.4302L31.552 29.1536H32.2614L33.7198 25H32.833L31.9067 27.8605ZM35.2176 27.3707H36.7548V26.6066H35.2176V25.7641H37.4643V25H34.3898V29.1536H37.5432V28.3895H35.2176V27.3707ZM38.5679 29.1536H39.3956V25H38.5679V29.1536ZM24.6148 28.2916L24.2404 29.1536H23.3733L25.2061 25H25.955L27.7877 29.1536H26.9009L26.5265 28.2916H24.6148ZM24.9301 27.5275H26.2111L25.5608 26.0385L24.9301 27.5275Z" fill="white"/>
<path id="Vector_14" d="M26.9797 19.7099C24.0432 19.7099 21.6586 17.3392 21.6586 14.4199H22.4075C22.4075 16.9278 24.4571 18.9654 26.9797 18.9654C29.5023 18.9654 31.5519 16.9278 31.5519 14.4199H32.3007C32.3007 17.3195 29.9162 19.7099 26.9797 19.7099Z" fill="white"/>
<path id="Vector_15" d="M53.7238 17.7116C53.1917 17.4177 52.7975 16.9867 52.5215 16.4577C52.2457 15.9287 52.1077 15.2821 52.1077 14.5768C52.1077 13.8322 52.2457 13.1661 52.5413 12.5979C52.8369 12.0297 53.2704 11.5987 53.8223 11.2852C54.3741 10.9717 55.0244 10.8346 55.793 10.8346C56.5223 10.8346 57.1331 10.9913 57.6652 11.2852C58.1777 11.5791 58.5915 11.9906 58.8675 12.5392C59.1434 13.0682 59.2813 13.6951 59.2813 14.4004C59.2813 15.1646 59.1236 15.8307 58.828 16.3988C58.5324 16.9671 58.0989 17.3981 57.547 17.7116C56.9952 18.0251 56.3449 18.1622 55.596 18.1622C54.8667 18.1622 54.2558 18.0251 53.7238 17.7116ZM56.9361 16.8494C57.2908 16.6143 57.547 16.3009 57.7047 15.8894C57.8821 15.4781 57.961 15.0274 57.961 14.4984C57.961 13.9889 57.8821 13.5383 57.7244 13.1269C57.5668 12.7154 57.3303 12.402 56.9952 12.1669C56.6602 11.9318 56.2266 11.8142 55.7142 11.8142C55.2216 11.8142 54.7879 11.9318 54.4332 12.1669C54.0785 12.402 53.8223 12.7351 53.645 13.1269C53.4676 13.5383 53.3887 13.9694 53.3887 14.4592C53.3887 14.9686 53.4676 15.4388 53.645 15.8503C53.8025 16.2617 54.0588 16.5752 54.3938 16.8103C54.7288 17.0454 55.1625 17.1629 55.6551 17.1629C56.1675 17.1826 56.5814 17.0846 56.9361 16.8494Z" fill="white"/>
<path id="Vector_16" d="M61.7842 11.971H59.5573L59.6755 10.9521H65.2331L65.1148 11.971H63.0061V18.0642H61.7646V11.971H61.7842Z" fill="white"/>
<path id="Vector_17" d="M71.8942 18.0643H70.4949L68.3666 14.9294H67.5191V18.0643H66.2775V10.9522H67.5191V13.8911H68.1694L69.6476 11.7555C69.8643 11.442 70.0811 11.2069 70.2979 11.0698C70.5146 10.9326 70.7906 10.8542 71.1256 10.8542C71.4016 10.8542 71.6577 10.8934 71.8745 10.9914L71.6183 11.9514C71.4803 11.8926 71.3621 11.8731 71.2241 11.8731C71.0862 11.8731 70.9482 11.9122 70.8497 11.9906C70.7511 12.069 70.6329 12.1865 70.5344 12.3433L69.2139 14.2046L71.8942 18.0643Z" fill="white"/>
<path id="Vector_18" d="M72.84 10.9521H74.7713C75.6778 10.9521 76.3676 11.1285 76.8602 11.5007C77.353 11.873 77.5895 12.402 77.5895 13.0877C77.5895 13.558 77.4909 13.9694 77.2741 14.322C77.0574 14.6747 76.7618 14.949 76.3676 15.1254C75.9734 15.3212 75.5399 15.3996 75.0275 15.3996C74.7515 15.3996 74.4362 15.3605 74.0815 15.3016V18.0446H72.84V10.9521ZM75.9537 14.1261C76.2099 13.891 76.3479 13.558 76.3479 13.1269C76.3479 12.6959 76.2099 12.3628 75.9537 12.1865C75.6778 11.9905 75.2836 11.8926 74.7713 11.8926H74.1012V14.42C74.4166 14.4787 74.6531 14.4984 74.8107 14.4984C75.3034 14.4787 75.6778 14.3612 75.9537 14.1261Z" fill="white"/>
<path id="Vector_19" d="M79.9545 17.7116C79.4223 17.4177 79.0282 16.9867 78.7523 16.4577C78.4763 15.9287 78.3384 15.2821 78.3384 14.5768C78.3384 13.8322 78.4763 13.1661 78.7719 12.5979C79.0675 12.0297 79.5012 11.5987 80.0529 11.2852C80.6048 10.9717 81.2552 10.8346 82.0237 10.8346C82.7529 10.8346 83.3639 10.9913 83.896 11.2852C84.4084 11.5791 84.8222 11.9906 85.0982 12.5392C85.374 13.0682 85.5119 13.6951 85.5119 14.4004C85.5119 15.1646 85.3543 15.8307 85.0587 16.3988C84.7631 16.9671 84.3295 17.3981 83.7777 17.7116C83.2258 18.0251 82.5755 18.1622 81.8266 18.1622C81.1171 18.1622 80.4866 18.0251 79.9545 17.7116ZM83.1667 16.8494C83.5216 16.6143 83.7777 16.3009 83.9354 15.8894C84.1128 15.4781 84.1916 15.0274 84.1916 14.4984C84.1916 13.9889 84.1128 13.5383 83.9551 13.1269C83.7974 12.7351 83.5609 12.402 83.2258 12.1669C82.8909 11.9318 82.4573 11.8142 81.9448 11.8142C81.4522 11.8142 81.0187 11.9318 80.6639 12.1669C80.3092 12.402 80.0529 12.7351 79.8756 13.1269C79.6982 13.5383 79.6194 13.9694 79.6194 14.4592C79.6194 14.9686 79.6982 15.4388 79.8756 15.8503C80.0333 16.2617 80.2894 16.5752 80.6245 16.8103C80.9595 17.0454 81.3931 17.1629 81.8858 17.1629C82.3981 17.1826 82.8318 17.0846 83.1667 16.8494Z" fill="white"/>
<path id="Vector_20" d="M91.7985 18.0643V14.1458C91.7985 13.6559 91.8182 13.0878 91.8575 12.4608L88.2511 18.0643H86.8715V10.9522H88.0146V15.0274C88.0146 15.4781 87.9948 15.9483 87.9752 16.4773L91.5226 10.9522H92.9415V18.0839H91.7985V18.0643ZM89 10.3253C88.7438 10.1881 88.5467 10.0118 88.4088 9.79627C88.2708 9.58074 88.192 9.34564 88.1525 9.09094H89.0395C89.1379 9.61993 89.4532 9.87463 89.9656 9.87463C90.4977 9.87463 90.7933 9.61993 90.8919 9.09094H91.7787C91.7394 9.34564 91.6605 9.58074 91.5226 9.79627C91.3847 10.0118 91.1875 10.1881 90.9314 10.3253C90.6751 10.4624 90.3401 10.5408 89.9656 10.5408C89.5912 10.5212 89.2758 10.4624 89 10.3253Z" fill="white"/>
<path id="Vector_21" d="M96.2134 11.971H94.0061L94.1244 10.9521H99.7017L99.5835 11.971H97.4748V18.0642H96.2331V11.971H96.2134Z" fill="white"/>
<path id="Vector_22" d="M100.726 10.9521H104.944L104.845 11.9514H101.988V13.9106H104.688V14.851H101.988V17.0454H105.003L104.904 18.0642H100.746V10.9521H100.726Z" fill="white"/>
<path id="Vector_23" d="M113.615 14.5376C113.871 14.6942 114.069 14.8902 114.226 15.145C114.384 15.3996 114.443 15.6935 114.443 16.0462C114.443 16.438 114.344 16.7907 114.147 17.1041C113.95 17.3981 113.655 17.6527 113.28 17.8095C112.886 17.9859 112.433 18.0642 111.901 18.0642H109.555V10.9521H111.802C112.571 10.9521 113.123 11.0893 113.517 11.3832C113.891 11.6771 114.088 12.0689 114.088 12.5784C114.088 13.0094 113.97 13.362 113.733 13.6364C113.497 13.9106 113.182 14.1261 112.788 14.2436C113.063 14.2829 113.359 14.4004 113.615 14.5376ZM110.758 13.8519H111.526C111.782 13.8519 112.019 13.793 112.216 13.6951C112.413 13.5971 112.571 13.46 112.669 13.2836C112.768 13.1074 112.827 12.931 112.827 12.7155C112.827 12.4216 112.728 12.2061 112.512 12.0689C112.295 11.9318 111.999 11.8534 111.585 11.8534H110.758V13.8519ZM112.827 16.8495C113.083 16.6535 113.201 16.3596 113.201 15.9874C113.201 15.5956 113.063 15.2821 112.788 15.0861C112.512 14.8902 112.098 14.7726 111.585 14.7726H110.758V17.163H111.684C112.196 17.163 112.571 17.0454 112.827 16.8495Z" fill="white"/>
</g>
<defs>
<clipPath id="clip0_229_1122">
<rect width="171" height="50" fill="white"/>
</clipPath>
</defs>
</svg>
