<svg width="171" height="51" viewBox="0 0 171 51" fill="none" xmlns="http://www.w3.org/2000/svg">
<g id="appStore" clip-path="url(#clip0_229_1100)">
<path id="Vector" d="M165.971 0.637451H5.0294C2.59894 0.637451 0.628662 2.63538 0.628662 5.09995V45.9C0.628662 48.3645 2.59894 50.3624 5.0294 50.3624H165.971C168.401 50.3624 170.371 48.3645 170.371 45.9V5.09995C170.371 2.63538 168.401 0.637451 165.971 0.637451Z" fill="black" stroke="#22252C"/>
<path id="Vector_2" d="M41.4167 25.7249C41.4445 23.5411 42.5735 21.5239 44.4083 20.3801C43.2455 18.6962 41.3679 17.6669 39.3417 17.6025C37.21 17.3757 35.1434 18.896 34.0572 18.896C32.9498 18.896 31.2773 17.6251 29.4764 17.6627C27.1066 17.7404 24.951 19.0734 23.7982 21.1742C21.3431 25.4845 23.1744 31.8192 25.5261 35.3032C26.7028 37.0093 28.0779 38.9151 29.8773 38.8475C31.6381 38.7734 32.2957 37.7089 34.4212 37.7089C36.527 37.7089 37.144 38.8475 38.9798 38.8045C40.8692 38.7734 42.0596 37.0908 43.195 35.3686C44.0404 34.1529 44.691 32.8095 45.1225 31.3877C42.8785 30.4253 41.4193 28.1956 41.4167 25.7249Z" fill="white"/>
<path id="Vector_3" d="M37.9489 15.3112C38.9791 14.0571 39.4867 12.4453 39.3637 10.8179C37.7899 10.9855 36.336 11.7483 35.2919 12.9542C34.2609 14.1441 33.7385 15.7007 33.84 17.2812C35.435 17.2979 36.9495 16.5718 37.9489 15.3112Z" fill="white"/>
<path id="Vector_4" fill-rule="evenodd" clip-rule="evenodd" d="M57.6656 34.5293H63.6744L65.1162 38.8499H67.7047L62.0133 22.8647H59.369L53.6776 38.8499H56.2227L57.6656 34.5293ZM63.0509 32.5347H58.288L60.6373 25.5226H60.7029L63.0509 32.5347Z" fill="white"/>
<path id="Vector_5" fill-rule="evenodd" clip-rule="evenodd" d="M75.1996 38.9709C78.0844 38.9709 79.996 36.644 79.996 33.0224C79.996 29.4108 78.0732 27.0726 75.1562 27.0726C73.6553 27.0235 72.2492 27.8152 71.4967 29.133H71.4533V27.1945H69.1697V42.7045H71.5289V36.9319H71.5835C72.3039 38.258 73.7085 39.0501 75.1996 38.9709ZM74.534 29.1116C76.3687 29.1116 77.5712 30.6629 77.5712 33.0224C77.5712 35.4033 76.3688 36.9433 74.534 36.9433C72.7316 36.9433 71.5191 35.3707 71.5191 33.0224C71.5191 30.6955 72.7316 29.1116 74.534 29.1116Z" fill="white"/>
<path id="Vector_6" fill-rule="evenodd" clip-rule="evenodd" d="M87.8493 38.9709C90.7341 38.9709 92.6456 36.644 92.6456 33.0224C92.6456 29.4107 90.7229 27.0726 87.8058 27.0726C86.3049 27.0235 84.8988 27.8152 84.1463 29.1329H84.1029V27.1945H81.8195V42.7045H84.1785V36.9319H84.2331C84.9537 38.258 86.3583 39.0499 87.8493 38.9709ZM87.1833 29.1116C89.0181 29.1116 90.2206 30.6629 90.2206 33.0224C90.2206 35.4033 89.0181 36.9433 87.1833 36.9433C85.3808 36.9433 84.1683 35.3707 84.1683 33.0224C84.1683 30.6955 85.3808 29.1116 87.1833 29.1116Z" fill="white"/>
<path id="Vector_7" d="M101.006 34.3951C101.181 35.9803 102.7 37.0211 104.775 37.0211C106.763 37.0211 108.194 35.9803 108.194 34.5509C108.194 33.3102 107.331 32.5673 105.288 32.0582L103.245 31.5591C100.351 30.8501 99.0067 29.4773 99.0067 27.2498C99.0067 24.4917 101.377 22.5973 104.743 22.5973C108.074 22.5973 110.357 24.4917 110.434 27.2498H108.053C107.91 25.6545 106.61 24.6916 104.709 24.6916C102.809 24.6916 101.508 25.6658 101.508 27.0839C101.508 28.2139 102.339 28.879 104.371 29.3881L106.108 29.8204C109.342 30.5961 110.686 31.9136 110.686 34.2517C110.686 37.2423 108.337 39.1154 104.6 39.1154C101.104 39.1154 98.7438 37.2863 98.5914 34.395L101.006 34.3951Z" fill="white"/>
<path id="Vector_8" d="M115.777 24.4366V27.1947H117.963V29.0891H115.777V35.5141C115.777 36.5123 116.215 36.9774 117.176 36.9774C117.435 36.9728 117.694 36.9543 117.952 36.9221V38.8051C117.52 38.887 117.081 38.9241 116.641 38.9158C114.314 38.9158 113.407 38.0295 113.407 35.7692V29.0891H111.736V27.1947H113.407V24.4366H115.777Z" fill="white"/>
<path id="Vector_9" fill-rule="evenodd" clip-rule="evenodd" d="M124.68 27.0514C121.359 27.0514 119.229 29.3556 119.229 33.0226C119.229 36.6996 121.337 38.9937 124.68 38.9937C128.024 38.9937 130.132 36.6996 130.132 33.0226C130.132 29.3556 128.012 27.0514 124.68 27.0514ZM124.68 29.0224C126.592 29.0224 127.728 30.507 127.728 33.0225C127.728 35.548 126.592 37.0213 124.68 37.0213C122.768 37.0213 121.633 35.548 121.633 33.0225C121.633 30.5184 122.768 29.0224 124.68 29.0224Z" fill="white"/>
<path id="Vector_10" d="M132.076 27.1947H134.327V29.1784H134.381C134.695 27.9015 135.849 27.0226 137.146 27.0727C137.417 27.0718 137.689 27.1018 137.954 27.162V29.3996C137.611 29.2933 137.253 29.2444 136.894 29.2551C136.2 29.2266 135.529 29.5068 135.057 30.0223C134.585 30.5379 134.357 31.2371 134.436 31.9365V38.8491H132.076V27.1947Z" fill="white"/>
<path id="Vector_11" fill-rule="evenodd" clip-rule="evenodd" d="M143.883 38.9937C146.482 38.9937 148.514 37.5417 148.832 35.4261H146.591C146.161 36.5074 145.082 37.1741 143.937 37.0654C143.079 37.0974 142.248 36.7539 141.656 36.1224C141.065 35.4907 140.769 34.6319 140.845 33.7643V33.6197H148.962V32.8C148.962 29.2663 146.963 27.0514 143.783 27.0514C140.551 27.0514 138.464 29.4223 138.464 33.0778C138.464 36.7221 140.539 38.9937 143.883 38.9937ZM146.602 31.9478H140.856C140.855 31.1608 141.163 30.4058 141.712 29.8504C142.262 29.2949 143.008 28.9851 143.783 28.9898C144.553 28.9731 145.295 29.2826 145.83 29.8442C146.366 30.4057 146.645 31.1681 146.602 31.9478Z" fill="white"/>
<path id="Vector_12" d="M56.6109 14.0787H57.6237C57.9762 14.1232 58.331 14.0163 58.6022 13.7838C58.8735 13.5512 59.0365 13.2142 59.0518 12.8543C59.0518 12.1459 58.5263 11.6884 57.6349 11.6884C57.2739 11.6372 56.908 11.7362 56.6202 11.9627C56.3323 12.1893 56.147 12.5242 56.1064 12.8914H54.9942C55.033 12.2245 55.3431 11.6038 55.8507 11.1779C56.3582 10.7519 57.0174 10.5589 57.6708 10.645C59.1621 10.645 60.2122 11.4916 60.2122 12.7104C60.2194 13.5517 59.6459 14.2838 58.8362 14.4672V14.5577C59.806 14.6013 60.5589 15.4313 60.5209 16.415C60.4513 17.1013 60.112 17.7301 59.5798 18.1598C59.0474 18.5894 58.367 18.7835 57.6919 18.6985C57.0153 18.7921 56.3302 18.6029 55.7937 18.1743C55.2573 17.7458 54.9155 17.1147 54.8467 16.4257H55.9762C56.0444 17.1605 56.71 17.6344 57.6919 17.6344C58.6737 17.6344 59.3146 17.1021 59.3146 16.3516C59.3146 15.5904 58.711 15.1215 57.6559 15.1215H56.6109V14.0787Z" fill="white"/>
<path id="Vector_13" fill-rule="evenodd" clip-rule="evenodd" d="M63.9297 15.1427C62.571 15.2282 61.8036 15.8296 61.8036 16.8731C61.8055 17.3678 62.0138 17.8386 62.3768 18.1691C62.7399 18.4996 63.2238 18.659 63.709 18.6079C64.4013 18.6402 65.0572 18.2925 65.4261 17.6978H65.5154V18.5124H66.6025V14.5518C66.6025 13.3274 65.7942 12.604 64.3611 12.604C63.0644 12.604 62.1396 13.2427 62.0243 14.2382H63.1165C63.2429 13.8284 63.6781 13.5939 64.3078 13.5939C65.0802 13.5939 65.4781 13.9397 65.4781 14.5518V15.0521L63.9297 15.1427ZM65.4785 15.8931V16.3777C65.4539 16.7471 65.2824 17.0906 65.0034 17.3294C64.7244 17.5683 64.3616 17.6821 63.9984 17.6448C63.3846 17.6448 62.9383 17.3413 62.9383 16.8195C62.9383 16.3085 63.2954 16.0371 64.0826 15.9836L65.4785 15.8931Z" fill="white"/>
<path id="Vector_14" d="M69.5967 13.679V18.5125H68.4686V12.7161H72.2324V13.679H69.5967Z" fill="white"/>
<path id="Vector_15" fill-rule="evenodd" clip-rule="evenodd" d="M76.7076 18.608C78.1505 18.608 79.0692 17.4534 79.0692 15.6117C79.0692 13.7695 78.1505 12.6198 76.6964 12.6199C75.9503 12.6012 75.2569 13.0084 74.9013 13.674H74.8171V12.716H73.7311V20.4395H74.8592V17.6344H74.9484C75.2981 18.2783 75.9844 18.6581 76.7076 18.608ZM76.3815 13.6475C77.3372 13.6475 77.9088 14.3874 77.9088 15.6117C77.9088 16.8411 77.3372 17.581 76.3764 17.581C75.4319 17.581 74.8381 16.8248 74.8381 15.6167C74.8381 14.403 75.4319 13.6475 76.3815 13.6475Z" fill="white"/>
<path id="Vector_16" d="M80.5713 20.5886V19.6036C80.6934 19.6194 80.8165 19.6266 80.9395 19.625C81.4372 19.6624 81.8828 19.3138 81.9734 18.8161L82.0576 18.5339L79.9886 12.7161H81.2172L82.6503 17.3201H82.7396L84.1677 12.7161H85.364L83.233 18.7519C82.7445 20.1625 82.204 20.615 81.0387 20.615C80.9445 20.615 80.6767 20.6042 80.5713 20.5886Z" fill="white"/>
<path id="Vector_17" d="M86.2429 16.8677H87.3661C87.4763 17.3787 87.9487 17.6452 88.6095 17.6452C89.3607 17.6452 89.8219 17.3096 89.8219 16.7879C89.8219 16.2292 89.4079 15.9627 88.6095 15.9627H87.7541V15.0739H88.5946C89.2763 15.0739 89.6235 14.808 89.6235 14.3234C89.6235 13.8978 89.2875 13.5729 88.5946 13.5729C87.9635 13.5729 87.5024 13.8444 87.4292 14.302H86.3421C86.5112 13.2082 87.5129 12.4532 88.5946 12.6043C89.9533 12.6043 90.7306 13.2272 90.7306 14.2065C90.7437 14.7685 90.3674 15.2632 89.8281 15.3931V15.4837C90.473 15.5681 90.9535 16.1286 90.9462 16.7879C90.9462 17.8898 90.0215 18.6189 88.6095 18.6189C87.361 18.6189 86.347 18.0386 86.2429 16.8677Z" fill="white"/>
<path id="Vector_18" d="M92.5714 18.5125V12.7161H93.6896V16.703H93.7788L96.4132 12.7161H97.5314V18.5125H96.4132V14.5043H96.329L93.6896 18.5125H92.5714Z" fill="white"/>
<path id="Vector_19" d="M103.691 13.679H101.891V18.5125H100.762V13.679H98.9619V12.7161H103.691V13.679Z" fill="white"/>
<path id="Vector_20" fill-rule="evenodd" clip-rule="evenodd" d="M107.29 18.6243C108.407 18.7468 109.451 18.0406 109.768 16.9474L108.681 16.9473C108.41 17.4393 107.874 17.7169 107.322 17.6501C106.896 17.6553 106.488 17.478 106.198 17.1616C105.908 16.8454 105.764 16.4197 105.8 15.9895V15.9254H109.836V15.5262C109.836 13.706 108.875 12.6041 107.285 12.6041C106.521 12.5975 105.791 12.9275 105.286 13.5085C104.78 14.0895 104.548 14.8643 104.649 15.6324C104.545 16.3984 104.778 17.1721 105.287 17.7483C105.795 18.3243 106.528 18.6447 107.29 18.6243ZM108.685 15.0793H105.799C105.794 14.6795 105.948 14.2943 106.227 14.0115C106.506 13.7287 106.885 13.5722 107.28 13.5777C107.668 13.5689 108.043 13.7269 108.31 14.0129C108.578 14.2989 108.714 14.6861 108.685 15.0793Z" fill="white"/>
<path id="Vector_21" fill-rule="evenodd" clip-rule="evenodd" d="M114.551 12.7161H117.128C118.246 12.7161 118.902 13.2906 118.902 14.19C118.906 14.7781 118.503 15.2886 117.936 15.4144V15.5049C118.63 15.5493 119.167 16.1368 119.159 16.8412C119.159 17.8525 118.409 18.5125 117.154 18.5125H114.551V12.7161ZM115.669 13.5942V15.0952H116.787C117.469 15.0952 117.795 14.8293 117.795 14.339C117.795 13.8872 117.511 13.5942 116.912 13.5942H115.669ZM115.669 17.6344V15.9361H116.865C117.627 15.9361 118.031 16.2077 118.031 16.7878C118.031 17.3359 117.674 17.6344 117.007 17.6344H115.669Z" fill="white"/>
</g>
<defs>
<clipPath id="clip0_229_1100">
<rect width="171" height="51" fill="white"/>
</clipPath>
</defs>
</svg>
