<svg width="171" height="50" viewBox="0 0 171 50" fill="none" xmlns="http://www.w3.org/2000/svg">
<g id="googlePlay" clip-path="url(#clip0_229_1076)">
<path id="Vector" d="M165.971 0.625H5.0294C2.59894 0.625 0.628662 2.58375 0.628662 5V45C0.628662 47.4162 2.59894 49.375 5.0294 49.375H165.971C168.401 49.375 170.371 47.4162 170.371 45V5C170.371 2.58375 168.401 0.625 165.971 0.625Z" fill="black" stroke="#22252C"/>
<path id="Vector_2" fill-rule="evenodd" clip-rule="evenodd" d="M58.971 28.7672V31.0389H64.455C64.3691 32.1087 63.9216 33.1184 63.1855 33.9036C62.073 35.0305 60.5324 35.6357 58.9456 35.5695C55.5803 35.5695 52.8522 32.8574 52.8522 29.5117C52.8522 26.1662 55.5803 23.4541 58.9456 23.4541C60.4949 23.4312 61.9909 24.0161 63.1093 25.0821L64.7216 23.4794C63.1932 21.9765 61.1205 21.1486 58.971 21.1825C55.8977 21.0636 53.0051 22.6259 51.4328 25.2539C49.8606 27.8819 49.8606 31.1544 51.4328 33.7824C53.0051 36.4104 55.8977 37.9726 58.971 37.8537C61.1674 37.941 63.2967 37.0915 64.8231 35.519C66.1563 34.0631 66.8666 32.1484 66.8034 30.1806C66.8081 29.7071 66.7697 29.234 66.6893 28.7672H58.971ZM73.0365 27.114C70.0498 27.121 67.6343 29.5336 67.6413 32.5027C67.6484 35.472 70.0752 37.8732 73.0619 37.8664C76.0485 37.8594 78.464 35.4467 78.4571 32.4775C78.478 31.0444 77.9128 29.6641 76.8909 28.653C75.869 27.6419 74.4779 27.0865 73.0365 27.114ZM79.4725 32.5027C79.4655 29.5336 81.881 27.121 84.8676 27.114C86.309 27.0865 87.7 27.6419 88.7219 28.653C89.7437 29.6641 90.3089 31.0444 90.288 32.4775C90.2951 35.4467 87.8796 37.8594 84.893 37.8664C81.9064 37.8732 79.4796 35.472 79.4725 32.5027ZM81.6837 33.889C82.2633 35.0954 83.5259 35.8267 84.8673 35.7335C85.7094 35.7141 86.5078 35.3574 87.0814 34.7444C87.6551 34.1312 87.9554 33.3139 87.914 32.4775C87.9107 31.1406 87.0858 29.9415 85.8336 29.4539C84.5815 28.9661 83.1568 29.2889 82.2408 30.2677C81.325 31.2466 81.1039 32.6826 81.6837 33.889ZM69.853 33.889C70.4327 35.0954 71.6952 35.8267 73.0368 35.7335C73.8787 35.7141 74.6771 35.3574 75.2508 34.7444C75.8244 34.1312 76.1247 33.3139 76.0833 32.4775C76.0801 31.1406 75.2551 29.9415 74.003 29.4539C72.7508 28.9661 71.3261 29.2889 70.4103 30.2677C69.4943 31.2466 69.2734 32.6826 69.853 33.889ZM111.869 27.114C113.974 27.191 115.812 28.5516 116.49 30.534L116.756 31.0892L109.533 34.055C109.983 35.0825 111.022 35.7292 112.148 35.683C113.233 35.6935 114.243 35.1316 114.801 34.2065L116.642 35.4685C115.331 37.4432 112.868 38.3242 110.592 37.633C108.316 36.9419 106.769 34.8436 106.791 32.4775C106.703 31.0849 107.199 29.7184 108.161 28.7022C109.123 27.6861 110.465 27.1112 111.869 27.114ZM109.127 32.326C109.075 31.5341 109.346 30.7547 109.878 30.1636C110.411 29.5724 111.16 29.2192 111.958 29.1836C112.794 29.1329 113.579 29.5854 113.951 30.332L109.127 32.326ZM105.636 37.5256H103.262V21.7504H105.636V37.5256ZM99.3777 28.3129H99.2888C98.5712 27.5004 97.5328 27.0395 96.4453 27.0509C93.5638 27.1897 91.2993 29.5527 91.2993 32.4207C91.2993 35.2886 93.5638 37.6516 96.4453 37.7906C97.5349 37.8124 98.5776 37.3496 99.2888 36.5286H99.3777V37.2984C99.3777 39.3555 98.2732 40.4535 96.4961 40.4535C95.2819 40.4269 94.2038 39.6742 93.7667 38.5477L91.7102 39.3934C92.4885 41.3369 94.392 42.6017 96.4961 42.5736C99.2761 42.5736 101.574 40.9456 101.574 36.9829V27.4294H99.3777V28.3129ZM93.577 32.4839C93.577 34.2034 94.922 35.6265 96.6483 35.7335C97.4734 35.702 98.2495 35.3361 98.7962 34.7211C99.3429 34.1061 99.6126 33.2954 99.5427 32.4775C99.6053 31.6626 99.3327 30.8572 98.7871 30.2459C98.2415 29.6345 97.4697 29.2694 96.6483 29.2341C94.922 29.3411 93.577 30.7642 93.577 32.4839ZM127.61 21.7502H121.923V37.5255H124.297V31.5435H127.61C129.453 31.6752 131.217 30.7717 132.181 29.2024C133.142 27.633 133.142 25.6606 132.181 24.0914C131.217 22.522 129.453 21.6185 127.61 21.7502ZM124.297 29.3225H127.61L127.66 29.3477C128.631 29.3477 129.527 28.833 130.013 27.9974C130.498 27.1617 130.498 26.1322 130.013 25.2966C129.527 24.461 128.631 23.9462 127.66 23.9462H124.297V29.3225ZM142.259 27.0634C140.492 26.9551 138.829 27.9029 138.032 29.4739L140.127 30.3446C140.558 29.5696 141.409 29.1199 142.297 29.1962C142.906 29.1255 143.518 29.3009 143.995 29.683C144.472 30.065 144.775 30.6217 144.836 31.228V31.3795C144.073 30.9806 143.223 30.7726 142.36 30.7737C140.101 30.7737 137.791 32.0357 137.791 34.3326C137.836 35.319 138.281 36.245 139.026 36.8991C139.77 37.5531 140.748 37.8794 141.739 37.8031C142.951 37.8699 144.106 37.2814 144.76 36.2635H144.836V37.5255H147.12V31.4552C147.12 28.6914 145.014 27.0886 142.31 27.0886L142.259 27.0634ZM140.114 34.3705C140.114 35.317 141.193 35.7082 141.968 35.7082L142.018 35.7335C143.453 35.705 144.646 34.6269 144.811 33.2095C144.152 32.844 143.406 32.6609 142.653 32.6794C141.46 32.6794 140.114 33.1085 140.114 34.3705ZM155.449 27.4294L152.732 34.2695H152.657L149.838 27.4294H147.299L151.526 36.9955L149.115 42.3086H151.59L158.09 27.4294H155.449ZM136.483 37.5256H134.122V21.7504H136.483V37.5256Z" fill="white"/>
<path id="Vector_3" d="M11.6211 9.18038C11.2028 9.67209 10.9894 10.3042 11.0245 10.9472V38.8631C10.9813 39.5072 11.1957 40.1422 11.6211 40.6299L11.71 40.7308L27.4384 25.0944V24.7158L11.71 9.09204L11.6211 9.18038Z" fill="url(#paint0_linear_229_1076)"/>
<path id="Vector_4" d="M32.6426 30.3067L27.4379 25.0945V24.7159L32.6426 19.5038L32.7569 19.5795L38.9899 23.0879C40.7671 24.0849 40.7671 25.7255 38.9899 26.7352L32.7823 30.2435L32.6426 30.3067Z" fill="url(#paint1_linear_229_1076)"/>
<path id="Vector_5" d="M32.7956 30.2311L27.4386 24.9054L11.6213 40.6301C12.3615 41.2851 13.4662 41.3223 14.2491 40.7185L32.7956 30.2311Z" fill="url(#paint2_linear_229_1076)"/>
<path id="Vector_6" d="M32.7956 19.5797L14.2491 9.10487C13.4708 8.49245 12.3626 8.52438 11.6213 9.1806L27.4386 24.9053L32.7956 19.5797Z" fill="url(#paint3_linear_229_1076)"/>
<path id="Vector_7" opacity="0.2" d="M32.6433 30.1176L14.2491 40.5292C13.4977 41.0929 12.4615 41.0929 11.7102 40.5292L11.6213 40.6176L11.7102 40.7186C12.4615 41.2822 13.4977 41.2822 14.2491 40.7186L32.7956 30.2312L32.6433 30.1176Z" fill="black"/>
<path id="Vector_8" opacity="0.12" d="M11.6208 40.4535C11.2131 39.9528 11.0133 39.3162 11.0623 38.674V38.8633C11.0191 39.5073 11.2335 40.1423 11.6589 40.6301L11.7477 40.5417L11.6208 40.4535Z" fill="black"/>
<path id="Vector_9" opacity="0.12" d="M38.9902 26.546L32.643 30.1175L32.7572 30.2311L38.9902 26.7228C39.7396 26.4076 40.2559 25.7105 40.3359 24.9054C40.1749 25.6338 39.6754 26.2426 38.9902 26.546Z" fill="black"/>
<path id="Vector_10" opacity="0.25" d="M14.2487 9.28147L38.9901 23.2647C39.6753 23.5679 40.1748 24.1769 40.3357 24.9053C40.2558 24.1002 39.7396 23.4031 38.9901 23.0879L14.2487 9.1048C12.4841 8.09518 11.0242 8.92811 11.0242 10.9473V11.1366C11.0623 9.11741 12.4841 8.28448 14.2487 9.28147Z" fill="white"/>
<path id="Vector_11" fill-rule="evenodd" clip-rule="evenodd" d="M50.8976 17.6737H51.8243V16.0709H57.6003V17.6611H58.5397V15.1371H57.6892V8.49878H52.6114V12.2849C52.7402 13.3287 52.4014 14.3761 51.6846 15.1497H50.8976V17.6737ZM52.8653 15.1749C53.3934 14.3058 53.6455 13.2987 53.5889 12.2849V9.43272H56.6737V15.1749H52.8653Z" fill="white"/>
<path id="Vector_12" d="M51.8243 17.6737V17.9862H52.1387V17.6737H51.8243ZM50.8977 17.6737H50.5833V17.9862H50.8977V17.6737ZM51.8243 16.0709V15.7584H51.51V16.0709H51.8243ZM57.6003 16.0709H57.9147V15.7584H57.6003V16.0709ZM57.6003 17.6611H57.286V17.9736H57.6003V17.6611ZM58.5397 17.6611V17.9736H58.8541V17.6611H58.5397ZM58.5397 15.1371H58.8541V14.8246H58.5397V15.1371ZM57.6892 15.1371H57.3749V15.4496H57.6892V15.1371ZM57.6892 8.49878H58.0036V8.18628H57.6892V8.49878ZM52.6114 8.49878V8.18628H52.2971V8.49878H52.6114ZM52.6114 12.2849H52.2971V12.304L52.2993 12.3229L52.6114 12.2849ZM51.6846 15.1497V15.4622H51.8226L51.9159 15.3613L51.6846 15.1497ZM50.8977 15.1497V14.8372H50.5833V15.1497H50.8977ZM53.5889 12.2849H53.274L53.2751 12.3022L53.5889 12.2849ZM52.8653 15.1749L52.5962 15.0133L52.3081 15.4874H52.8653V15.1749ZM53.5889 9.43272V9.12022H53.2746V9.43272H53.5889ZM56.6737 9.43272H56.988V9.12022H56.6737V9.43272ZM56.6737 15.1749V15.4874H56.988V15.1749H56.6737ZM51.8243 17.3612H50.8977V17.9862H51.8243V17.3612ZM51.51 16.0709V17.6737H52.1387V16.0709H51.51ZM57.6003 15.7584H51.8243V16.3834H57.6003V15.7584ZM57.9147 17.6611V16.0709H57.286V17.6611H57.9147ZM58.5397 17.3486H57.6003V17.9736H58.5397V17.3486ZM58.2254 15.1371V17.6611H58.8541V15.1371H58.2254ZM57.6892 15.4496H58.5397V14.8246H57.6892V15.4496ZM57.3749 8.49878V15.1371H58.0036V8.49878H57.3749ZM52.6114 8.81128H57.6892V8.18628H52.6114V8.81128ZM52.9258 12.2849V8.49878H52.2971V12.2849H52.9258ZM51.9159 15.3613C52.695 14.5204 53.0634 13.3817 52.9234 12.2468L52.2993 12.3229C52.417 13.2757 52.1077 14.2318 51.4535 14.9379L51.9159 15.3613ZM50.8977 15.4622H51.6846V14.8372H50.8977V15.4622ZM51.212 17.6737V15.1497H50.5833V17.6737H51.212ZM53.2751 12.3022C53.3281 13.2532 53.0916 14.1981 52.5962 15.0133L53.1344 15.3364C53.695 14.4136 53.9628 13.3441 53.9027 12.2676L53.2751 12.3022ZM53.2746 9.43272L53.274 12.2849H53.9032V9.43272H53.2746ZM56.6737 9.12022H53.5889V9.74522H56.6737V9.12022ZM56.988 15.1749V9.43272H56.3593V15.1749H56.988ZM52.8653 15.4874H56.6737V14.8624H52.8653V15.4874Z" fill="white"/>
<path id="Vector_13" fill-rule="evenodd" clip-rule="evenodd" d="M63.3827 16.2364C64.4283 16.2364 65.4309 15.8228 66.1692 15.0868C66.9201 14.3489 67.3294 13.3343 67.299 12.285C67.3174 11.238 66.9101 10.2278 66.1692 9.48337C65.4309 8.74738 64.4283 8.33374 63.3827 8.33374C62.3372 8.33374 61.3346 8.74738 60.5963 9.48337C59.0873 11.05 59.0873 13.5201 60.5963 15.0868C61.3346 15.8228 62.3372 16.2364 63.3827 16.2364ZM63.3763 15.3139C62.5968 15.3246 61.8477 15.014 61.307 14.4558C60.1892 13.222 60.1892 11.3482 61.307 10.1144C61.8477 9.55614 62.5968 9.24547 63.3763 9.25622C64.1567 9.24083 64.9076 9.55225 65.4456 10.1144C66.5813 11.3413 66.5813 13.2289 65.4456 14.4558C64.9076 15.0179 64.1567 15.3293 63.3763 15.3139Z" fill="white"/>
<path id="Vector_14" d="M66.1692 15.0868L65.9481 14.8645L65.9466 14.866L66.1692 15.0868ZM67.2989 12.285L66.9843 12.2796L66.9848 12.294L67.2989 12.285ZM60.5962 9.48337L60.3735 9.26265L60.3691 9.26724L60.5962 9.48337ZM60.5962 15.0868L60.3691 15.3029L60.3737 15.3074L60.5962 15.0868ZM61.307 14.4558L61.0734 14.665L61.0806 14.6725L61.307 14.4558ZM63.3762 15.3139L63.3825 15.0013L63.372 15.0014L63.3762 15.3139ZM61.307 10.1144L61.0804 9.89752L61.0735 9.90524L61.307 10.1144ZM63.3762 9.25622L63.372 9.56885L63.3825 9.56865L63.3762 9.25622ZM65.4456 10.1144L65.6768 9.90274L65.6733 9.89898L65.4456 10.1144ZM65.4456 14.4558L65.6733 14.6711L65.6768 14.6674L65.4456 14.4558ZM65.9466 14.866C65.2673 15.5433 64.3448 15.9239 63.3826 15.9239V16.5489C64.5117 16.5489 65.5945 16.1021 66.3917 15.3074L65.9466 14.866ZM66.9848 12.294C67.0126 13.2566 66.6372 14.1875 65.9481 14.8645L66.3901 15.309C67.2031 14.5103 67.6461 13.4119 67.6131 12.2761L66.9848 12.294ZM65.9458 9.70315C66.627 10.3878 67.0012 11.3167 66.9843 12.2796L67.6133 12.2905C67.6331 11.1593 67.1931 10.0679 66.3926 9.26358L65.9458 9.70315ZM63.3826 8.64624C64.3448 8.64624 65.2664 9.02595 65.9458 9.70315L66.3926 9.26358C65.5953 8.46882 64.5117 8.02124 63.3826 8.02124V8.64624ZM60.8188 9.70404C61.4981 9.02684 62.4206 8.64624 63.3826 8.64624V8.02124C62.2537 8.02124 61.1708 8.46789 60.3735 9.26265L60.8188 9.70404ZM60.8233 14.8706C59.4308 13.4249 59.4308 11.1453 60.8233 9.69949L60.3691 9.26724C58.7439 10.9547 58.7439 13.6154 60.3691 15.3029L60.8233 14.8706ZM63.3826 15.9239C62.4206 15.9239 61.4981 15.5433 60.8188 14.866L60.3737 15.3074C61.171 16.1021 62.2537 16.5489 63.3826 16.5489V15.9239ZM61.0806 14.6725C61.6816 15.293 62.5143 15.6384 63.3806 15.6264L63.372 15.0014C62.6794 15.011 62.0139 14.735 61.5335 14.239L61.0806 14.6725ZM61.0735 9.90524C59.848 11.2579 59.8479 13.3124 61.0734 14.665L61.5406 14.2466C60.5305 13.1316 60.5305 11.4384 61.5406 10.3235L61.0735 9.90524ZM63.3806 8.94374C62.5143 8.93179 61.6814 9.27702 61.0804 9.89752L61.5335 10.3311C62.0139 9.83515 62.6794 9.5593 63.372 9.56885L63.3806 8.94374ZM65.6733 9.89898C65.0744 9.27329 64.2387 8.92665 63.3701 8.94377L63.3825 9.56865C64.0746 9.55502 64.7406 9.83123 65.2177 10.3298L65.6733 9.89898ZM65.6768 14.6674C66.9232 13.3209 66.9232 11.2492 65.6768 9.90274L65.2142 10.326C66.2392 11.4333 66.2392 13.1369 65.2142 14.2441L65.6768 14.6674ZM63.3701 15.6264C64.2387 15.6435 65.0744 15.2969 65.6733 14.6711L65.2177 14.2404C64.7406 14.7389 64.0746 15.0149 63.3825 15.0013L63.3701 15.6264Z" fill="white"/>
<path id="Vector_15" d="M72.2244 16.2352C71.1866 16.2513 70.187 15.8457 69.4571 15.1119C67.9353 13.5309 67.9353 11.0392 69.4571 9.45814C70.1992 8.71155 71.2199 8.30478 72.2752 8.33494C73.3521 8.30465 74.3827 8.7704 75.0679 9.59696L74.3952 10.2532C73.8891 9.60636 73.0986 9.24404 72.2752 9.28145C71.4854 9.26143 70.7225 9.56754 70.168 10.127C69.0348 11.3646 69.0348 13.2561 70.168 14.4936C70.7225 15.0531 71.4854 15.3592 72.2752 15.3392C73.1581 15.3142 73.9849 14.9032 74.5348 14.2159L75.2203 14.8848C74.8725 15.2992 74.4397 15.6348 73.9508 15.8692C73.4108 16.1201 72.8204 16.2452 72.2244 16.2352Z" fill="white" stroke="white" stroke-width="0.5"/>
<path id="Vector_16" d="M79.2058 16.0709H78.2284V9.43268H76.0956V8.49878H81.3257V9.43268H79.2058V16.0709Z" fill="white" stroke="white" stroke-width="0.5"/>
<path id="Vector_17" d="M88.0538 8.49878L85.1722 14.8846C85.0308 15.4028 84.6675 15.8331 84.1786 16.0614C83.6899 16.2898 83.1249 16.2933 82.6334 16.0709L82.8872 15.1748C83.0425 15.2617 83.2169 15.3093 83.3949 15.3137C83.5828 15.3231 83.769 15.2746 83.9282 15.1748C84.0823 15.0473 84.2004 14.8821 84.2708 14.6953L84.5502 14.0896L82.0112 8.49878H83.1665L85.0452 12.8402L86.8985 8.49878H88.0538Z" fill="white" stroke="white" stroke-width="0.5"/>
<path id="Vector_18" d="M89.1581 16.0709V8.49878H94.6676V16.0709H93.6901V9.43268H90.1356V16.0709H89.1581Z" fill="white" stroke="white" stroke-width="0.5"/>
<path id="Vector_19" d="M96.4073 16.0709V8.49878H97.3848V11.7422H101.193V8.49878H102.183V16.0709H101.193V12.6508H97.3848V16.0709H96.4073Z" fill="white" stroke="white" stroke-width="0.5"/>
<path id="Vector_20" fill-rule="evenodd" clip-rule="evenodd" d="M107.362 16.2374C108.41 16.2374 109.415 15.8235 110.155 15.0868H110.142C111.638 13.515 111.638 11.0551 110.142 9.48337C109.404 8.74738 108.401 8.33374 107.356 8.33374C106.31 8.33374 105.308 8.74738 104.569 9.48337C103.061 11.05 103.061 13.5201 104.569 15.0868C105.31 15.8235 106.315 16.2374 107.362 16.2374ZM107.362 15.3139C106.582 15.3293 105.831 15.0179 105.293 14.4558C104.157 13.2289 104.157 11.3413 105.293 10.1144C105.831 9.55225 106.582 9.24083 107.362 9.25622C108.142 9.24547 108.891 9.55614 109.432 10.1144C110.549 11.3482 110.549 13.222 109.432 14.4558C108.891 15.014 108.142 15.3246 107.362 15.3139Z" fill="white"/>
<path id="Vector_21" d="M110.155 15.0868L110.377 15.3076L110.913 14.7743H110.155V15.0868ZM110.142 15.0868L109.914 14.872L109.412 15.3993H110.142V15.0868ZM110.142 9.48337L110.371 9.26852L110.365 9.2627L110.142 9.48337ZM104.569 9.48337L104.347 9.26265L104.342 9.26725L104.569 9.48337ZM104.569 15.0868L104.342 15.3029L104.347 15.3076L104.569 15.0868ZM105.293 14.4558L105.062 14.6674L105.065 14.6711L105.293 14.4558ZM107.362 15.3139L107.367 15.0013L107.356 15.0015L107.362 15.3139ZM105.293 10.1144L105.065 9.89894L105.062 9.90277L105.293 10.1144ZM107.362 9.25622L107.356 9.56883L107.367 9.56868L107.362 9.25622ZM109.432 10.1144L109.665 9.90512L109.658 9.89763L109.432 10.1144ZM109.432 14.4558L109.658 14.6726L109.665 14.6649L109.432 14.4558ZM109.933 14.8659C109.251 15.544 108.326 15.9249 107.362 15.9249V16.5499C108.493 16.5499 109.578 16.103 110.377 15.3076L109.933 14.8659ZM110.142 15.3993H110.155V14.7743H110.142V15.3993ZM109.914 9.69815C111.295 11.1494 111.295 13.4208 109.914 14.872L110.371 15.3015C111.981 13.6093 111.981 10.9607 110.371 9.26852L109.914 9.69815ZM107.356 8.64624C108.318 8.64624 109.24 9.02684 109.92 9.70404L110.365 9.2627C109.568 8.46793 108.485 8.02124 107.356 8.02124V8.64624ZM104.792 9.70404C105.471 9.02684 106.394 8.64624 107.356 8.64624V8.02124C106.227 8.02124 105.144 8.46788 104.347 9.26265L104.792 9.70404ZM104.797 14.8706C103.404 13.4249 103.404 11.1453 104.797 9.69949L104.342 9.26725C102.717 10.9547 102.717 13.6154 104.342 15.3029L104.797 14.8706ZM107.362 15.9249C106.398 15.9249 105.473 15.544 104.792 14.8659L104.347 15.3076C105.146 16.103 106.231 16.5499 107.362 16.5499V15.9249ZM105.065 14.6711C105.664 15.2969 106.5 15.6435 107.368 15.6264L107.356 15.0015C106.664 15.0151 105.998 14.7389 105.521 14.2404L105.065 14.6711ZM105.062 9.90277C103.815 11.2493 103.815 13.3209 105.062 14.6674L105.524 14.2441C104.499 13.1369 104.499 11.4333 105.524 10.326L105.062 9.90277ZM107.368 8.94377C106.5 8.92665 105.664 9.27325 105.065 9.89894L105.521 10.3298C105.998 9.83123 106.664 9.55519 107.356 9.56883L107.368 8.94377ZM109.658 9.89763C109.057 9.27713 108.224 8.93179 107.358 8.94374L107.367 9.56868C108.059 9.55913 108.725 9.83515 109.205 10.3311L109.658 9.89763ZM109.665 14.6649C110.891 13.3123 110.891 11.2578 109.665 9.90512L109.198 10.3235C110.208 11.4384 110.208 13.1316 109.198 14.2466L109.665 14.6649ZM107.358 15.6264C108.224 15.6384 109.057 15.2931 109.658 14.6726L109.205 14.239C108.725 14.735 108.059 15.0109 107.367 15.0013L107.358 15.6264Z" fill="white"/>
<path id="Vector_22" fill-rule="evenodd" clip-rule="evenodd" d="M115.271 16.0711V8.49889H118.025C118.596 8.49319 119.149 8.70031 119.574 9.07943C120.004 9.44992 120.245 9.99083 120.234 10.556C120.237 10.8959 120.14 11.2294 119.955 11.5151C119.768 11.7861 119.508 12.0001 119.206 12.1335C119.572 12.2581 119.895 12.4861 120.133 12.7898C120.366 13.0991 120.491 13.4758 120.488 13.8624C120.501 14.4514 120.25 15.0158 119.803 15.4022C119.362 15.8097 118.78 16.0314 118.178 16.0206L115.271 16.0711ZM116.248 11.7423H118.025C118.362 11.7617 118.689 11.6269 118.914 11.3764C119.129 11.1666 119.252 10.8809 119.256 10.5813C119.269 10.2807 119.164 9.98711 118.964 9.76096C118.748 9.52264 118.436 9.39301 118.114 9.40759H116.286L116.248 11.7423ZM118.228 15.1371H116.248V12.6509H118.178C118.536 12.6417 118.882 12.7838 119.13 13.0422C119.35 13.2698 119.477 13.5716 119.485 13.8877C119.484 14.2066 119.361 14.5132 119.142 14.7459C118.912 15.0053 118.576 15.1487 118.228 15.1371Z" fill="white"/>
<path id="Vector_23" d="M115.271 8.49901V8.18651H114.956V8.49901H115.271ZM115.271 16.0712H114.956V16.3892L115.276 16.3836L115.271 16.0712ZM118.025 8.49901V8.81153L118.028 8.81149L118.025 8.49901ZM119.574 9.07954L119.364 9.31219L119.368 9.31556L119.574 9.07954ZM120.234 10.5561L119.92 10.55L119.92 10.5589L120.234 10.5561ZM119.955 11.5152L120.214 11.6924L120.219 11.6845L119.955 11.5152ZM119.206 12.1336L119.078 11.848L118.345 12.1714L119.104 12.4293L119.206 12.1336ZM120.133 12.7899L120.384 12.6023L120.38 12.5977L120.133 12.7899ZM120.488 13.8626L120.174 13.8603L120.174 13.8696L120.488 13.8626ZM119.803 15.4023L119.596 15.1662L119.588 15.1734L119.803 15.4023ZM118.178 16.0207L118.183 15.7081L118.172 15.7082L118.178 16.0207ZM118.025 11.7425L118.043 11.4305L118.034 11.43H118.025V11.7425ZM116.248 11.7425L115.934 11.7374L115.928 12.055H116.248V11.7425ZM118.914 11.3765L118.694 11.1533L118.686 11.1607L118.679 11.1687L118.914 11.3765ZM119.256 10.5814L118.942 10.569L118.942 10.5769L119.256 10.5814ZM118.964 9.76107L119.201 9.55503L119.198 9.55183L118.964 9.76107ZM118.114 9.40771V9.72053L118.128 9.71988L118.114 9.40771ZM116.286 9.40771V9.09521H115.977L115.972 9.40263L116.286 9.40771ZM116.248 15.1372H115.933V15.4497H116.248V15.1372ZM118.228 15.1372L118.239 14.8247H118.228V15.1372ZM116.248 12.6511V12.3385H115.933V12.6511H116.248ZM118.177 12.6511V12.9637L118.185 12.9634L118.177 12.6511ZM119.13 13.0423L118.902 13.2578L118.903 13.2592L119.13 13.0423ZM119.485 13.8878L119.799 13.8889L119.799 13.8802L119.485 13.8878ZM119.142 14.7461L118.913 14.5323L118.907 14.5389L119.142 14.7461ZM114.956 8.49901V16.0712H115.585V8.49901H114.956ZM118.025 8.18651H115.271V8.81151L118.025 8.81153V8.18651ZM119.784 8.84692C119.3 8.41564 118.672 8.18004 118.022 8.18653L118.028 8.81149C118.521 8.80658 118.997 8.98522 119.364 9.31219L119.784 8.84692ZM120.548 10.5622C120.561 9.90438 120.28 9.27478 119.78 8.84352L119.368 9.31556C119.727 9.62529 119.929 10.0775 119.92 10.55L120.548 10.5622ZM120.219 11.6845C120.438 11.3475 120.552 10.9543 120.549 10.5533L119.92 10.5589C119.922 10.8379 119.843 11.1115 119.691 11.3459L120.219 11.6845ZM119.333 12.4193C119.689 12.2625 119.994 12.0109 120.214 11.6924L119.696 11.3382C119.541 11.5616 119.328 11.738 119.078 11.848L119.333 12.4193ZM120.38 12.5977C120.105 12.2462 119.732 11.9822 119.308 11.8379L119.104 12.4293C119.413 12.5343 119.684 12.7263 119.885 12.9821L120.38 12.5977ZM120.802 13.8648C120.806 13.4098 120.659 12.9663 120.384 12.6023L119.881 12.9774C120.073 13.2319 120.176 13.5422 120.174 13.8603L120.802 13.8648ZM120.009 15.6382C120.527 15.1908 120.818 14.5376 120.802 13.8557L120.174 13.8696C120.185 14.3657 119.973 14.8408 119.596 15.1662L120.009 15.6382ZM118.172 16.3331C118.855 16.3454 119.517 16.0938 120.017 15.6311L119.588 15.1734C119.207 15.5259 118.704 15.7176 118.183 15.7081L118.172 16.3331ZM115.276 16.3836L118.183 16.3331L118.172 15.7082L115.265 15.7587L115.276 16.3836ZM118.025 11.43H116.248V12.055H118.025V11.43ZM118.679 11.1687C118.518 11.3479 118.284 11.4443 118.043 11.4305L118.007 12.0544C118.44 12.0793 118.86 11.9061 119.148 11.5843L118.679 11.1687ZM118.942 10.5769C118.939 10.7941 118.85 11.0013 118.694 11.1533L119.134 11.5997C119.408 11.3323 119.565 10.9679 119.571 10.5858L118.942 10.5769ZM118.728 9.96709C118.874 10.133 118.951 10.3485 118.942 10.569L119.57 10.5938C119.586 10.2132 119.453 9.84139 119.201 9.55503L118.728 9.96709ZM118.128 9.71988C118.357 9.70954 118.578 9.80142 118.731 9.97031L119.198 9.55183C118.919 9.24409 118.516 9.07668 118.1 9.09553L118.128 9.71988ZM116.286 9.72021L118.114 9.72053V9.09521H116.286V9.72021ZM116.562 11.7475L116.6 9.41277L115.972 9.40263L115.934 11.7374L116.562 11.7475ZM116.248 15.4497H118.228V14.8247H116.248V15.4497ZM115.933 12.6511V15.1372H116.562V12.6511H115.933ZM118.177 12.3385H116.248V12.9636L118.177 12.9637V12.3385ZM119.357 12.8267C119.048 12.5044 118.617 12.3271 118.169 12.3386L118.185 12.9634C118.455 12.9564 118.716 13.0634 118.902 13.2578L119.357 12.8267ZM119.799 13.8802C119.79 13.4858 119.631 13.1093 119.356 12.8253L118.903 13.2592C119.069 13.4304 119.165 13.6576 119.171 13.8954L119.799 13.8802ZM119.372 14.9596C119.645 14.6692 119.798 14.2867 119.799 13.8889L119.171 13.8867C119.17 14.1267 119.078 14.3572 118.913 14.5323L119.372 14.9596ZM118.218 15.4496C118.659 15.4643 119.085 15.2822 119.378 14.9531L118.907 14.5389C118.738 14.7286 118.493 14.8332 118.239 14.8247L118.218 15.4496Z" fill="white"/>
</g>
<defs>
<linearGradient id="paint0_linear_229_1076" x1="20.5471" y1="-9.86598" x2="-4.61995" y2="-3.12762" gradientUnits="userSpaceOnUse">
<stop stop-color="#00A0FF"/>
<stop offset="0.01" stop-color="#00A1FF"/>
<stop offset="0.26" stop-color="#00BEFF"/>
<stop offset="0.51" stop-color="#00D2FF"/>
<stop offset="0.76" stop-color="#00DFFF"/>
<stop offset="1" stop-color="#00E3FF"/>
</linearGradient>
<linearGradient id="paint1_linear_229_1076" x1="41.3129" y1="12.0323" x2="10.6052" y2="12.0323" gradientUnits="userSpaceOnUse">
<stop stop-color="#FFE000"/>
<stop offset="0.41" stop-color="#FFBD00"/>
<stop offset="0.78" stop-color="#FFA500"/>
<stop offset="1" stop-color="#FF9C00"/>
</linearGradient>
<linearGradient id="paint2_linear_229_1076" x1="11.1739" y1="16.7268" x2="-8.91336" y2="50.6515" gradientUnits="userSpaceOnUse">
<stop stop-color="#FF3A44"/>
<stop offset="1" stop-color="#C31162"/>
</linearGradient>
<linearGradient id="paint3_linear_229_1076" x1="-0.724083" y1="4.83788" x2="8.23919" y2="19.9876" gradientUnits="userSpaceOnUse">
<stop stop-color="#32A071"/>
<stop offset="0.07" stop-color="#2DA771"/>
<stop offset="0.48" stop-color="#15CF74"/>
<stop offset="0.8" stop-color="#06E775"/>
<stop offset="1" stop-color="#00F076"/>
</linearGradient>
<clipPath id="clip0_229_1076">
<rect width="171" height="50" fill="white"/>
</clipPath>
</defs>
</svg>
