<svg width="259" height="40" viewBox="0 0 259 40" fill="none" xmlns="http://www.w3.org/2000/svg">
<rect x="108.966" y="0.689697" width="39.3103" height="39.3103" rx="8.27586" fill="#8641DE"/>
<mask id="mask0_87_329" style="mask-type:alpha" maskUnits="userSpaceOnUse" x="108" y="0" width="41" height="40">
<rect x="108.966" y="0.689697" width="39.3103" height="39.3103" rx="8.27586" fill="#7636C9"/>
</mask>
<g mask="url(#mask0_87_329)">
<circle cx="145.862" cy="35.5173" r="27.2414" fill="#7636C9"/>
</g>
<path opacity="0.9" d="M137.931 19.1504C138.851 19.6813 138.851 21.0085 137.931 21.5394L125 29.0051C124.08 29.536 122.931 28.8724 122.931 27.8106L122.931 12.8792C122.931 11.8174 124.08 11.1537 125 11.6846L137.931 19.1504Z" fill="white"/>
<path d="M89.2778 35.7724C87.1311 35.7724 85.2311 35.2924 83.5778 34.3324C81.9245 33.3591 80.6378 32.0124 79.7178 30.2924C78.8111 28.5591 78.3578 26.5857 78.3578 24.3724C78.3578 22.1457 78.8178 20.1724 79.7378 18.4524C80.6711 16.7191 81.9645 15.3724 83.6178 14.4124C85.2845 13.4524 87.1711 12.9724 89.2778 12.9724C91.4245 12.9724 93.3245 13.4591 94.9778 14.4324C96.6445 15.3924 97.9378 16.7391 98.8578 18.4724C99.7778 20.2057 100.238 22.1724 100.238 24.3724C100.238 26.5857 99.7711 28.5591 98.8378 30.2924C97.9178 32.0124 96.6245 33.3591 94.9578 34.3324C93.3045 35.2924 91.4111 35.7724 89.2778 35.7724ZM89.2778 30.6924C90.4111 30.6924 91.3645 30.4324 92.1378 29.9124C92.9245 29.3791 93.5111 28.6391 93.8978 27.6924C94.2845 26.7324 94.4778 25.6257 94.4778 24.3724C94.4778 22.4124 94.0311 20.8724 93.1378 19.7524C92.2445 18.6191 90.9578 18.0524 89.2778 18.0524C88.1178 18.0524 87.1511 18.3124 86.3778 18.8324C85.6178 19.3524 85.0511 20.0857 84.6778 21.0324C84.3045 21.9791 84.1178 23.0924 84.1178 24.3724C84.1178 25.6791 84.3111 26.8057 84.6978 27.7524C85.0978 28.6991 85.6778 29.4257 86.4378 29.9324C87.2111 30.4391 88.1578 30.6924 89.2778 30.6924Z" fill="#F8F3FF"/>
<path d="M54.2053 13.5723H59.6453V21.8123H68.5253V13.5723H73.9653V35.1723H68.5253V26.8923H59.6453V35.1723H54.2053V13.5723Z" fill="#F8F3FF"/>
<path d="M48.6416 35.1723H43.4416V21.9723L33.6816 35.1723H29.3616V13.5723H34.5616V26.3323L44.3616 13.5723H48.6416V35.1723Z" fill="#F8F3FF"/>
<path d="M2.79999 6.37231H8.23999V19.6523L19.2 6.37231H25.84L13.8 20.5723L26.6 35.1723H19.72L8.23999 22.0523V35.1723H2.79999V6.37231Z" fill="#F8F3FF"/>
<path d="M256.912 35.1725H251.712V21.9725L241.952 35.1725H237.632V13.5725H242.832V26.3325L252.632 13.5725H256.912V35.1725ZM247.992 11.1725C246.832 11.1725 245.765 10.8925 244.792 10.3325C243.819 9.75917 243.045 8.98583 242.472 8.0125C241.912 7.03917 241.632 5.9725 241.632 4.8125H245.832C245.832 5.2125 245.925 5.57917 246.112 5.9125C246.312 6.2325 246.572 6.4925 246.892 6.6925C247.225 6.87917 247.592 6.9725 247.992 6.9725C248.392 6.9725 248.752 6.87917 249.072 6.6925C249.405 6.4925 249.665 6.2325 249.852 5.9125C250.052 5.57917 250.152 5.2125 250.152 4.8125H254.352C254.352 5.9725 254.065 7.03917 253.492 8.0125C252.932 8.98583 252.165 9.75917 251.192 10.3325C250.219 10.8925 249.152 11.1725 247.992 11.1725Z" fill="#F8F3FF"/>
<path d="M223.376 35.7724C221.189 35.7724 219.243 35.2991 217.536 34.3524C215.843 33.4057 214.516 32.0857 213.556 30.3924C212.609 28.6991 212.136 26.7857 212.136 24.6524C212.136 22.3324 212.596 20.2924 213.516 18.5324C214.449 16.7591 215.743 15.3924 217.396 14.4324C219.049 13.4591 220.936 12.9724 223.056 12.9724C225.296 12.9724 227.216 13.5057 228.816 14.5724C230.416 15.6257 231.589 17.1324 232.336 19.0924C233.096 21.0391 233.369 23.3057 233.156 25.8924H227.776V23.8924C227.776 22.4124 227.623 21.2257 227.316 20.3324C227.009 19.4257 226.529 18.7591 225.876 18.3324C225.223 17.9057 224.363 17.6924 223.296 17.6924C222.069 17.6924 221.056 17.9457 220.256 18.4524C219.456 18.9457 218.863 19.6857 218.476 20.6724C218.089 21.6591 217.896 22.8924 217.896 24.3724C217.896 25.7191 218.089 26.8657 218.476 27.8124C218.863 28.7457 219.443 29.4591 220.216 29.9524C220.989 30.4457 221.936 30.6924 223.056 30.6924C224.109 30.6924 225.016 30.4591 225.776 29.9924C226.549 29.5257 227.136 28.8524 227.536 27.9724L232.976 29.5324C232.443 30.8257 231.689 31.9457 230.716 32.8924C229.743 33.8257 228.623 34.5391 227.356 35.0324C226.089 35.5257 224.763 35.7724 223.376 35.7724ZM216.216 21.8524H230.536V25.8924H216.216V21.8524Z" fill="#F8F3FF"/>
<path d="M186.727 30.6523C187.5 30.7989 188.1 30.7923 188.527 30.6323C188.953 30.4723 189.273 30.1589 189.487 29.6923C189.713 29.2123 189.913 28.5056 190.087 27.5723C190.38 25.9989 190.633 24.0123 190.847 21.6123C191.06 19.2123 191.247 16.5323 191.407 13.5723H207.727V35.1723H202.287V18.6523H196.167L196.127 19.1523C195.7 24.2856 195.313 27.7323 194.967 29.4923C194.633 31.2389 194.153 32.5856 193.527 33.5323C192.9 34.4789 192.04 35.0856 190.947 35.3523C189.867 35.6323 188.46 35.5723 186.727 35.1723V30.6523Z" fill="#F8F3FF"/>
<path d="M159.352 6.37231H183.112V35.1723H177.672V11.4523H164.792V35.1723H159.352V6.37231Z" fill="#F8F3FF"/>
</svg>
