<svg width="32" height="32" viewBox="0 0 32 32" fill="none" xmlns="http://www.w3.org/2000/svg">
<path d="M15.9831 16.4274C12.3126 16.4274 9.26453 13.4951 9.26453 10.0243C9.26453 6.43373 12.3126 3.50146 15.9831 3.50146C19.778 3.50146 22.7017 6.43373 22.7017 10.0243C22.7017 13.4951 19.778 16.4274 15.9831 16.4274ZM15.9831 7.27078C14.428 7.27078 13.246 8.52673 13.246 10.0235C13.246 11.5203 14.428 12.6566 15.9831 12.6566C17.6004 12.6566 18.7203 11.5196 18.7203 10.0235C18.7203 8.52747 17.6004 7.27152 15.9831 7.27152V7.27078ZM18.6581 21.7511L22.453 25.2818C23.1999 26.0598 23.1999 27.1968 22.453 27.9149C21.644 28.6928 20.3998 28.6928 19.778 27.9149L15.9831 24.3273L12.3141 27.9178C11.9411 28.2769 11.4429 28.4564 10.8833 28.4564C10.4481 28.4564 9.94997 28.2769 9.51476 27.9178C8.7679 27.1997 8.7679 26.0627 9.51476 25.2848L13.3718 21.7541C11.9778 21.3563 10.6404 20.7934 9.39041 20.0785C8.45703 19.5998 8.27051 18.4029 8.76867 17.5053C9.39041 16.6076 10.5103 16.3683 11.5059 16.9667C12.8548 17.7593 14.4046 18.1786 15.9851 18.1786C17.5655 18.1786 19.1153 17.7593 20.4642 16.9667C21.4621 16.3683 22.6419 16.6076 23.2014 17.5053C23.761 18.4029 23.5123 19.5998 22.6419 20.0785C21.4575 20.7959 20.0889 21.3352 18.6581 21.7541V21.7511Z" fill="#F8F3FF"/>
</svg>
