<svg width="32" height="32" viewBox="0 0 32 32" fill="none" xmlns="http://www.w3.org/2000/svg">
<mask id="mask0_188_2670" style="mask-type:luminance" maskUnits="userSpaceOnUse" x="0" y="0" width="32" height="32">
<path d="M31.8416 0H0.158447V32H31.8416V0Z" fill="white"/>
</mask>
<g mask="url(#mask0_188_2670)">
<path fill-rule="evenodd" clip-rule="evenodd" d="M2.3856 2.24942C0.158447 4.49885 0.158447 8.11923 0.158447 15.36V16.64C0.158447 23.8808 0.158447 27.5012 2.3856 29.7506C4.61275 32 8.19729 32 15.3664 32H16.6337C23.8028 32 27.3873 32 29.6145 29.7506C31.8416 27.5012 31.8416 23.8808 31.8416 16.64V15.36C31.8416 8.11923 31.8416 4.49885 29.6145 2.24942C27.3873 0 23.8028 0 16.6337 0H15.3664C8.19729 0 4.61275 0 2.3856 2.24942ZM5.50505 9.73341C5.67664 18.0534 9.79542 23.0534 17.0166 23.0534H17.4259V18.2934C20.0793 18.56 22.0858 20.5201 22.8911 23.0534H26.6403C25.6106 19.2667 22.9042 17.1734 21.2145 16.3734C22.9042 15.3867 25.2805 12.9867 25.8481 9.73341H22.4421C21.7028 12.3734 19.5117 14.7734 17.4259 15V9.73341H14.0198V18.96C11.9076 18.4267 9.241 15.8401 9.12219 9.73341H5.50505Z" fill="#F8F3FF"/>
</g>
</svg>
