<svg width="30" height="20" viewBox="0 0 30 20" fill="none" xmlns="http://www.w3.org/2000/svg">
<path id="Vector" d="M11.9318 14.2209V5.77925L19.7727 10.0002L11.9318 14.2209ZM29.3731 3.12303C29.028 1.89375 28.0114 0.925647 26.7208 0.597098C24.3813 0 14.9999 0 14.9999 0C14.9999 0 5.61873 0 3.27924 0.597098C1.98856 0.925647 0.971973 1.89375 0.626931 3.12303C0 5.35114 0 10.0001 0 10.0001C0 10.0001 0 14.6487 0.626931 16.877C0.971973 18.1064 1.98843 19.0744 3.27924 19.4031C5.61873 20 14.9999 20 14.9999 20C14.9999 20 24.3813 20 26.7208 19.4031C28.0114 19.0744 29.028 18.1064 29.3731 16.877C30 14.6487 30 9.99994 30 9.99994C30 9.99994 30 5.35114 29.3731 3.12303Z" fill="#F8F3FF"/>
</svg>
